<svg version="1.1" viewBox="0 0 400 322.76" xmlns="http://www.w3.org/2000/svg" class="datamorphosis-logo">
  <g fill-rule="evenodd">
    <path d="m34.244 27.772c-9.066 3.261-9.948 11.802-4.104 39.702 2.11 10.076 5.699 26.152 7.422 33.252 0.625 2.575 1.517 6.352 1.982 8.394 4.38 19.236 14.111 57.339 15.394 60.281 5.39 12.359 16.29 20.215 30.131 21.716 3.074 0.334 42.669 0.065 86.198-0.585l14.528-0.217-0.088-4.843c-0.195-10.751-0.777-25.52-1.015-25.763-0.14-0.142-2.319-0.156-4.844-0.032l-4.589 0.228 0.23 10.239 0.231 10.24-23.695 0.22c-13.033 0.122-32.534 0.356-43.336 0.522-25.644 0.394-28.658 4e-3 -35.566-4.607-7.436-4.963-9.468-9.155-14.206-29.304-0.23-0.976-0.786-3.228-1.236-5.004-4.511-17.788-10.005-40.863-15.412-64.729-7.613-33.608-7.636-38.928-0.162-38.891 3.587 0.017 3.813 0.123 51.355 23.969l44.875 22.509 2.745 5.493c1.509 3.022 3.969 8.034 5.466 11.138 1.497 3.105 3.984 8.26 5.525 11.456 3.001 6.222 9.581 19.852 14.221 29.459 1.565 3.241 2.979 5.892 3.143 5.892 0.313 0 7.786-3.805 8.21-4.18 0.135-0.12-2.097-5.076-4.961-11.013-2.863-5.938-5.827-12.103-6.586-13.701s-3.212-6.666-5.451-11.261c-2.239-4.596-4.071-8.39-4.071-8.431s-1.904-3.981-4.232-8.755c-2.327-4.774-4.572-9.407-4.987-10.294-1.588-3.392 0.622-2.173-49.861-27.509-28.63-14.368-47.982-23.897-49.556-24.402-6.107-1.958-10.499-2.339-13.698-1.189m326.53-0.438c-2.881 0.627-5.211 1.278-7.316 2.046-3.531 1.286-95.16 47.321-96.268 48.365-0.954 0.898-2.495 3.957-12.803 25.403-1.024 2.13-3.13 6.489-4.681 9.685-1.55 3.196-3.656 7.554-4.68 9.685-1.023 2.131-3.128 6.489-4.677 9.685-5.009 10.334-5.697 11.869-5.431 12.115 0.48 0.443 7.767 4.189 8.149 4.189 0.207 0 0.933-1.199 1.614-2.664 0.681-1.464 2.58-5.423 4.221-8.797 1.64-3.374 3.892-8.023 5.005-10.331s3.076-6.376 4.361-9.039c1.285-2.664 3.318-6.877 4.516-9.363 2.355-4.882 6.972-14.406 9.626-19.855l1.651-3.389 45.774-22.845c25.819-12.885 46.607-23.071 47.686-23.364 5.486-1.493 8.638 0.92 8.625 6.603-8e-3 3.613-3.126 20.486-6.006 32.503-0.468 1.953-1.273 5.524-1.789 7.936-0.517 2.411-1.445 6.479-2.064 9.039-0.619 2.561-1.506 6.326-1.971 8.368-0.466 2.042-1.574 6.691-2.464 10.331-5.088 20.824-7.322 29.885-9.473 38.418-1.321 5.238-2.504 9.96-2.629 10.492-1.371 5.832-6.915 12.453-12.979 15.498-6.411 3.221-8.894 3.452-33.064 3.08-10.877-0.167-30.338-0.403-43.246-0.524-16.867-0.158-23.499-0.322-23.58-0.581-0.062-0.199 2e-3 -4.713 0.142-10.032 0.14-5.318 0.146-9.77 0.013-9.892-0.133-0.121-2.296-0.323-4.808-0.447l-4.567-0.225-0.199 3.66c-0.42 7.739-0.848 26.861-0.606 27.09 0.26 0.247 56.802 0.941 85.322 1.047 17.541 0.065 18.987-0.063 24.6-2.176 12.753-4.8 19.836-13.436 23.643-28.825 0.781-3.159 1.931-7.777 2.556-10.263 1.297-5.166 6.066-24.504 7.762-31.477 1.868-7.681 5.329-22.378 6.653-28.249 0.681-3.019 1.681-7.449 2.223-9.847 0.541-2.397 1.574-7.264 2.295-10.815 0.722-3.551 1.524-7.351 1.783-8.444 1.888-7.966 2.886-19.026 2.124-23.546-1.266-7.517-7.64-11.859-15.043-10.248" fill="#34c3e4"></path>
    <path d="m64.353 60.646c-8.556 2.957-9.327 15.073-1.224 19.219 3.55 1.817 7.732 1.229 11.035-1.55l0.971-0.817 1.577 0.754c0.867 0.414 12.17 5.452 25.117 11.194l23.54 10.442 5.468 11.154c3.007 6.134 6.31 12.897 7.34 15.027 1.03 2.131 3.049 6.266 4.487 9.189s2.614 5.429 2.614 5.569-9.05 0.255-20.112 0.255h-20.113l-0.359-1.05c-1.754-5.129-8.81-26.988-8.81-27.292 0-0.215 0.551-0.942 1.224-1.616 6.297-6.297 2.203-17.306-6.609-17.769-12.763-0.671-13.96 19.3-1.233 20.575l1.937 0.194 1.023 3.067c0.563 1.687 2.85 8.66 5.084 15.497 2.233 6.836 4.185 12.645 4.337 12.91 0.241 0.42 3.163 0.467 23.25 0.37l22.974-0.111 3.559 7.338c1.958 4.037 3.493 7.406 3.412 7.487-0.082 0.081-15.585 0.026-34.453-0.122l-34.306-0.269-0.275-0.969c-0.263-0.929-1.332-5.647-3.54-15.62l-1.028-4.643 0.946-0.67c6.742-4.775 6.025-14.872-1.301-18.338-8.376-3.962-16.986 5.314-13.004 14.011 1.334 2.916 4.946 5.716 7.382 5.725 1.416 5e-3 1.162-0.821 4.627 15.015 0.777 3.552 1.61 7.329 1.85 8.394l0.437 1.937 25.821 0.241c14.201 0.132 31.34 0.205 38.088 0.161l12.268-0.079 11.622-6.896c11.995-7.118 18.365-10.879 23.809-14.062l3.148-1.84-10.789-21.517-10.79-21.517 0.913-1.152c4.299-5.429 0.716-12.919-6.181-12.919-9.365 0-9.763 14.482-0.433 15.798l1.291 0.182 9.808 19.519 9.808 19.518-0.732 0.498c-1 0.68-29.438 17.467-29.934 17.671-0.256 0.105-1.479-2.061-3.436-6.084-1.671-3.436-4.814-9.879-6.984-14.318s-5.147-10.54-6.615-13.559c-1.469-3.019-5.214-10.672-8.324-17.007l-5.654-11.519-1.567-0.79c-0.862-0.435-3.456-1.622-5.764-2.639-2.309-1.016-4.778-2.109-5.489-2.428-0.71-0.318-3.18-1.41-5.488-2.425-3.651-1.607-7.05-3.123-11.945-5.328-0.71-0.32-5.65-2.501-10.977-4.847-11.437-5.037-10.217-4.153-10.296-7.463-0.171-7.131-6.58-11.905-13.002-9.686m267.96-0.133c-4.416 1.381-6.837 4.742-7.181 9.97l-0.188 2.847-2.259 0.982c-2.718 1.179-10.308 4.546-12.681 5.624-0.938 0.426-1.76 0.774-1.827 0.774s-1.521 0.654-3.231 1.453-3.166 1.453-3.235 1.453-1.226 0.508-2.572 1.13c-1.345 0.621-2.505 1.13-2.577 1.13s-1.198 0.493-2.501 1.096-3.438 1.559-4.744 2.125-3.449 1.525-4.763 2.132-2.458 1.104-2.542 1.104-1.209 0.492-2.5 1.095c-1.292 0.602-2.924 1.334-3.628 1.626-2.017 0.838-2.359 1.308-5.182 7.125-1.465 3.019-4.584 9.411-6.932 14.205s-5.255 10.751-6.461 13.237c-1.205 2.486-4.822 9.88-8.037 16.431-3.215 6.552-5.845 12.027-5.845 12.168 0 0.86-1.486 0.154-8.956-4.253-4.574-2.698-11.415-6.721-15.204-8.941-3.788-2.219-6.952-4.204-7.032-4.411-0.121-0.316 17.763-36.321 19.132-38.517 0.289-0.463 0.772-0.727 1.333-0.729 7.637-0.027 9.576-11.95 2.49-15.312-7.076-3.358-14.632 7.359-8.867 12.577 0.99 0.896 1.244 0.322-10.015 22.671-5.859 11.631-10.653 21.195-10.653 21.251 0 0.117 4.558 2.82 24.913 14.779l14.099 8.282 16.894-0.046c9.292-0.026 26.331-0.135 37.865-0.242l20.97-0.196 0.408-1.937c0.224-1.065 0.98-4.552 1.68-7.748 3.592-16.399 3.356-15.641 4.882-15.656 2.591-0.026 6.563-3.432 7.638-6.549 2.997-8.697-5.331-16.962-13.295-13.194-7.422 3.511-8.094 14.123-1.171 18.472l0.759 0.477-0.822 3.705c-0.452 2.038-1.497 6.756-2.323 10.485s-1.643 6.867-1.815 6.973c-0.42 0.26-68.392 0.719-68.647 0.464-0.178-0.178 6.066-13.223 6.861-14.333 0.261-0.365 4.175-0.42 23.247-0.323l22.933 0.117 4.941-15.013c6.142-18.664 5.467-17.11 7.432-17.11 8.298 0 12.317-11.63 6.15-17.797-9.513-9.513-22.919 5.167-13.777 15.085l1.31 1.421-2.992 9.12c-1.646 5.016-3.735 11.372-4.642 14.124l-1.65 5.004-20.097 0.083c-11.867 0.049-20.097-0.036-20.097-0.209 0-0.293 2.436-5.343 12.239-25.378 7.485-15.297 7.524-15.371 8.423-15.857 0.845-0.456 2.659-1.276 9.362-4.229 2.22-0.978 4.835-2.14 5.812-2.584 0.976-0.443 4.245-1.89 7.264-3.215 3.018-1.325 6.069-2.678 6.779-3.006 0.71-0.329 3.979-1.777 7.264-3.219s6.409-2.83 6.941-3.083c0.533-0.254 2.12-0.977 3.528-1.607l2.559-1.145 0.831 0.778c3.984 3.731 10.969 3.368 14.2-0.739 6.429-8.173-0.655-19.981-10.198-16.997m-261.99 5.45c2.053 1.348 2.979 4.797 1.863 6.934-2.93 5.608-11.38 2.459-9.837-3.666 0.933-3.708 4.855-5.315 7.974-3.268m267.64 0c2.053 1.348 2.979 4.797 1.863 6.934-2.638 5.05-9.922 3.283-9.922-2.407 0-4.441 4.414-6.92 8.059-4.527m-246.24 32.548c2.927 0.98 4.537 4.358 3.384 7.099-1.66 3.949-6.57 4.713-9.086 1.414-3.165-4.149 0.847-10.139 5.702-8.513m223.52 0.637c5.43 3.721 0.718 12.252-5.212 9.438-2.217-1.053-3.561-4.392-2.674-6.643 1.352-3.429 5.049-4.739 7.886-2.795m-235.66 25.753c4.488 2.588 2.451 10.047-2.743 10.047-5.734 0-7.18-8.557-1.775-10.505 1.47-0.529 3.092-0.365 4.518 0.458m248.98 0.137c1.654 1.118 2.46 2.863 2.287 4.949-0.562 6.776-10.267 6.517-10.328-0.276-0.041-4.559 4.396-7.137 8.041-4.673" fill="#e98d44"></path>
    <path d="m60.19 63.035-0.949 1.049 1.05-0.948c0.978-0.884 1.197-1.151 0.948-1.151-0.056 0-0.528 0.473-1.049 1.05m267.64 0-0.948 1.049 1.049-0.948c0.577-0.522 1.049-0.994 1.049-1.05 0-0.249-0.266-0.029-1.15 0.949m-270.6 7.506c4e-3 0.71 0.07 0.963 0.147 0.561s0.074-0.983-6e-3 -1.291c-0.081-0.309-0.144 0.02-0.141 0.73m267.64 0c4e-3 0.71 0.07 0.963 0.147 0.561 0.078-0.402 0.075-0.983-6e-3 -1.291-0.081-0.309-0.144 0.02-0.141 0.73m-247.7 2.091c0 0.425 1.581 1.44 1.84 1.181 0.112-0.113 0.035-0.205-0.172-0.205s-0.667-0.291-1.022-0.646-0.646-0.504-0.646-0.33m9.362 4.688c0.444 0.254 0.953 0.462 1.13 0.462 0.178 0-0.04-0.208-0.484-0.462-0.444-0.253-0.952-0.461-1.13-0.461-0.177 0 0.04 0.208 0.484 0.461m5.812 2.583c0.443 0.254 0.952 0.462 1.129 0.462 0.178 0-0.04-0.208-0.484-0.462s-0.952-0.461-1.13-0.461c-0.177 0 0.041 0.207 0.485 0.461m237.61-0.326c0 0.221 1.976 1.201 2.124 1.053 0.07-0.07-0.379-0.368-0.999-0.664-0.619-0.295-1.125-0.47-1.125-0.389m-225.99 5.492c0.444 0.253 0.952 0.461 1.13 0.461 0.177 0-0.041-0.208-0.485-0.461-0.443-0.254-0.952-0.462-1.129-0.462-0.178 0 0.04 0.208 0.484 0.462m64.729 0.321c0.734 0.249 4.801 0.391 4.197 0.147-0.355-0.144-1.517-0.26-2.582-0.259-1.066 2e-3 -1.792 0.052-1.615 0.112m62.389 0.074c0.578 0.071 1.522 0.071 2.099 0 0.577-0.072 0.105-0.131-1.049-0.131s-1.627 0.059-1.05 0.131m-57.385 0.474c2.065 1.921 3.287 2.87 2.26 1.756-0.621-0.674-1.42-1.379-1.775-1.566s-0.573-0.272-0.485-0.19m52.519 1.955c-1.046 1.403-1.604 2.516-1.374 2.745 0.103 0.104 0.187 0.035 0.187-0.152 0-0.188 0.511-1.084 1.135-1.991 1.253-1.821 1.291-2.262 0.052-0.602m12.597 1.691c0.295 0.62 0.594 1.069 0.664 0.999 0.148-0.148-0.832-2.125-1.053-2.125-0.081 0 0.094 0.507 0.389 1.126m-75.788 0.699c-0.179 0.471-0.278 0.998-0.22 1.171 0.058 0.174 0.267-0.211 0.464-0.856 0.416-1.353 0.238-1.583-0.244-0.315m-0.552 3.018c0 0.622 0.066 0.876 0.148 0.565 0.081-0.311 0.081-0.819 0-1.13-0.082-0.311-0.148-0.056-0.148 0.565m-72.791-0.094c0.401 0.077 0.983 0.074 1.291-7e-3 0.309-0.081-0.02-0.144-0.73-0.14-0.71 3e-3 -0.963 0.069-0.561 0.147m222.11 0c0.402 0.077 0.983 0.074 1.292-7e-3 0.308-0.081-0.02-0.144-0.73-0.14-0.711 3e-3 -0.963 0.069-0.562 0.147m-87.064 3.019c-0.014 0.276 0.2 0.785 0.476 1.13 0.494 0.616 0.498 0.616 0.205-0.019-0.163-0.356-0.377-0.864-0.476-1.13-0.155-0.419-0.183-0.416-0.205 0.019m-48.608 2.423c-0.482 0.633-0.827 1.202-0.764 1.264 0.062 0.063 0.522-0.455 1.022-1.151 1.136-1.58 0.931-1.671-0.258-0.113m-86.607-0.283c0.31 0.081 0.819 0.081 1.13 0 0.31-0.081 0.056-0.147-0.565-0.147-0.622 0-0.876 0.066-0.565 0.147m75.302 0.706c0.985 1.084 2.677 2.152 2.96 1.869 0.086-0.086-0.162-0.256-0.55-0.38-0.388-0.123-1.307-0.748-2.042-1.389-1.327-1.159-1.33-1.159-0.368-0.1m72.619 0.121-0.948 1.049 1.049-0.948c0.577-0.522 1.049-0.994 1.049-1.049 0-0.25-0.266-0.03-1.15 0.948m74.358-0.821c0.402 0.077 0.983 0.074 1.292-7e-3 0.308-0.08-0.02-0.144-0.73-0.14-0.711 4e-3 -0.963 0.07-0.562 0.147m5.404 5.26c0 1.209 0.107 2.03 0.237 1.825 0.131-0.205 0.238-1.026 0.238-1.825s-0.107-1.621-0.238-1.826c-0.13-0.205-0.237 0.617-0.237 1.826m-10.081 0c0 0.799 0.063 1.126 0.14 0.726 0.077-0.399 0.077-1.053 0-1.452-0.077-0.4-0.14-0.073-0.14 0.726m-211.79 0.161c3e-3 0.711 0.069 0.963 0.146 0.562 0.078-0.402 0.075-0.983-6e-3 -1.292-0.081-0.308-0.144 0.02-0.14 0.73m4.836-0.161c0 0.621 0.066 0.876 0.147 0.565s0.081-0.819 0-1.13-0.147-0.057-0.147 0.565m-17.832 6.881c0 0.055 0.473 0.527 1.05 1.049l1.049 0.948-0.948-1.049c-0.884-0.978-1.151-1.198-1.151-0.948m6.457 3.577c0 0.071 0.569 0.182 1.264 0.248 0.696 0.067 1.196 9e-3 1.111-0.127-0.153-0.248-2.375-0.361-2.375-0.121m222.64 0.128c-0.087 0.141 0.34 0.197 0.949 0.126s1.108-0.186 1.108-0.255c0-0.243-1.901-0.124-2.057 0.129m-42.98 3.296c-0.275 0.533-0.428 0.969-0.339 0.969s0.387-0.436 0.662-0.969c0.276-0.533 0.428-0.968 0.34-0.968-0.089 0-0.387 0.435-0.663 0.968m-185.8 3.33c0 0.055 0.472 0.527 1.05 1.049l1.049 0.948-0.948-1.049c-0.884-0.978-1.151-1.198-1.151-0.948m235.82 1.271-1.276 1.372 1.372-1.276c1.276-1.187 1.521-1.468 1.277-1.468-0.053 0-0.671 0.617-1.373 1.372m-103.94 2.179c-0.276 0.532-0.428 0.968-0.34 0.968 0.089 0 0.387-0.436 0.663-0.968 0.275-0.533 0.428-0.969 0.339-0.969s-0.387 0.436-0.662 0.969m-72.155-0.522c0 0.346 0.96 2.136 1.146 2.136 0.089 0-0.078-0.472-0.372-1.049-0.599-1.179-0.774-1.424-0.774-1.087m-75.185 2.168c-0.198 0.568-0.35 1.265-0.338 1.55 0.012 0.284 0.223-0.132 0.47-0.923 0.516-1.658 0.408-2.175-0.132-0.627m13.195-0.191c1.285 1.548 1.393 1.648 1.042 0.962-0.182-0.357-0.672-0.937-1.088-1.289-0.73-0.617-0.728-0.605 0.046 0.327m132.85 1.128c-0.275 0.532-0.428 0.968-0.339 0.968s0.387-0.436 0.662-0.968c0.276-0.533 0.429-0.969 0.34-0.969s-0.387 0.436-0.663 0.969m102.27 2.744c2e-3 0.887 0.065 1.212 0.139 0.722 0.075-0.491 0.073-1.218-4e-3 -1.615s-0.137 5e-3 -0.135 0.893m-248.93-0.162c0 0.622 0.067 0.876 0.148 0.565s0.081-0.819 0-1.13c-0.081-0.31-0.148-0.056-0.148 0.565m263.69 2.195c0 0.201-0.466 0.915-1.037 1.587-0.93 1.096-0.943 1.139-0.132 0.415 1.022-0.91 1.637-1.899 1.357-2.18-0.103-0.103-0.188-0.023-0.188 0.178m2.079 5.634-0.949 1.049 1.05-0.948c0.978-0.884 1.197-1.15 0.948-1.15-0.056 0-0.528 0.472-1.049 1.049m-75.036 3.229c-4e-3 0.504 0.333 0.557 3.143 0.498l3.148-0.066-2.895-0.109c-1.801-0.067-2.989-0.256-3.143-0.498-0.17-0.267-0.249-0.212-0.253 0.175m-115.26 0.242-3.067 0.199 3.148 0.062c1.924 0.038 3.147-0.064 3.147-0.261 0-0.178-0.036-0.295-0.08-0.261-0.045 0.034-1.461 0.151-3.148 0.261m-41.784 1.614c0.119 0.444 0.35 1.025 0.515 1.291 0.208 0.337 0.233 0.238 0.083-0.323-0.119-0.444-0.35-1.025-0.515-1.291-0.208-0.337-0.233-0.238-0.083 0.323m16.36 3.793c4.75 0.05 12.523 0.05 17.272 0 4.75-0.05 0.864-0.091-8.636-0.091-9.499 0-13.385 0.041-8.636 0.091m151.76 0c4.763 0.05 12.462 0.05 17.111 0 4.648-0.05 0.752-0.092-8.659-0.092-9.411 1e-3 -13.214 0.042-8.452 0.092m-189.87 3.148c0 0.355 0.116 1.009 0.258 1.453 0.205 0.639 0.259 0.672 0.259 0.161 0-0.355-0.117-1.009-0.259-1.453-0.204-0.639-0.258-0.672-0.258-0.161m245.13 0.484c-0.122 0.558-0.155 1.082-0.073 1.164 0.082 0.083 0.242-0.314 0.356-0.881 0.269-1.346 8e-3 -1.607-0.283-0.283m-167.05 3.067c0 0.178 0.207 0.686 0.461 1.13s0.462 0.662 0.462 0.484c0-0.177-0.208-0.686-0.462-1.13-0.254-0.443-0.461-0.661-0.461-0.484m-63.197 7.506c4.051 0.051 10.589 0.051 14.528 0 3.938-0.051 0.623-0.093-7.367-0.093s-11.213 0.042-7.161 0.093m46.548 0.081-14.851 0.171 14.931 0.076c9.79 0.05 14.932-0.035 14.932-0.247 0-0.178-0.037-0.289-0.081-0.247s-6.764 0.153-14.931 0.247m154.1-0.081c4.14 0.051 10.823 0.051 14.85 0 4.028-0.051 0.64-0.093-7.528-0.093s-11.463 0.042-7.322 0.093m-39.064 0.323c4.14 0.051 10.823 0.051 14.851 0 4.027-0.051 0.639-0.093-7.529-0.093s-11.463 0.042-7.322 0.093m-147.54 4.842c2.185 0.056 5.672 0.056 7.748 0 2.076-0.057 0.288-0.102-3.973-0.102-4.262 0-5.96 0.046-3.775 0.102m179.48 0c2.175 0.056 5.734 0.056 7.91 0 2.175-0.056 0.395-0.102-3.955-0.102-4.351 0-6.13 0.046-3.955 0.102m-133.17 0.317c0.666 0.069 1.755 0.069 2.421 0 0.666-0.07 0.121-0.127-1.21-0.127-1.332 0-1.877 0.057-1.211 0.127m92.655 0c0.666 0.069 1.756 0.069 2.422 0 0.666-0.07 0.121-0.127-1.211-0.127s-1.876 0.057-1.211 0.127m-77.239 34.008c-6.836 0.141-18.168 0.412-25.182 0.602-7.014 0.191-17.764 0.431-23.89 0.534-13.433 0.225-13.053 0.14-17.249 3.86-1.611 1.428-7.723 6.788-13.582 11.912-15.181 13.274-15.692 13.815-16.984 17.966-1.891 6.075 0.071 12.456 6.372 20.729 9.061 11.896 34.973 44.502 37.203 46.813 11.862 12.296 27.573 8.24 35.902-9.269 4.333-9.108 9.542-30.572 9.802-40.385 0.051-1.953 0.113-3.635 0.138-3.738 0.094-0.396 13.586-5.471 14.529-5.466 0.528 4e-3 0.495-0.164-1.06-5.313-1.508-4.992-0.972-4.766-6.553-2.766-14.845 5.318-14.424 4.85-16.732 18.587-6.083 36.212-13.07 48.741-24.596 44.103-3.309-1.331-3.796-1.852-16.19-17.32-27.105-33.828-29.452-37.09-29.487-40.984-0.026-2.878 0.218-3.171 9.19-11.031 4.639-4.063 10.992-9.646 14.119-12.406l5.686-5.019 29.04-0.553c15.971-0.305 30.783-0.589 32.914-0.631l3.874-0.078 0.172 16.966 9.513-0.178v-13.56-13.559l-2.26-0.035c-1.243-0.02-7.853 0.079-14.689 0.219m47.282 0.058c-0.085 0.222-0.117 6.361-0.071 13.641l0.085 13.236 9.524 0.178v-8.383c0-4.611 0.109-8.444 0.242-8.518s5.545-0.024 12.026 0.111c6.481 0.136 21.191 0.433 32.69 0.661l20.907 0.414 3.162 2.764c1.739 1.521 7.205 6.324 12.147 10.674 4.942 4.351 9.823 8.605 10.847 9.455 3.211 2.664 3.777 5.747 1.779 9.696-2.295 4.537-39.023 50.89-41.768 52.715-12.631 8.398-21.421-5.029-27.183-41.519-1.467-9.292-2.758-13.397-4.563-14.507-2.325-1.43-13.89-6.04-16.593-6.615l-0.989-0.21-1.4 4.7c-0.77 2.584-1.342 4.75-1.272 4.812 0.071 0.062 1.437 0.554 3.035 1.093 8.146 2.749 11.764 4.282 11.807 5.004 0.013 0.218 8e-3 1.413-0.011 2.656-0.051 3.33 2.34 16.822 4.547 25.656 6.284 25.155 18.393 36.116 33.124 29.983 3.562-1.482 7.016-3.943 9.235-6.579 8.786-10.438 36.329-45.539 39.278-50.057 4.735-7.253 5.104-15.235 0.958-20.732-2.045-2.713-30.781-27.677-32.707-28.414-1.535-0.588-3.035-0.665-19.419-1.001-21.809-0.447-42.881-0.908-52.23-1.143-5.471-0.137-7.066-0.087-7.187 0.229m-56.725 20.164c0.399 0.077 1.053 0.077 1.452 0 0.4-0.077 0.073-0.14-0.726-0.14s-1.126 0.063-0.726 0.14m81.678 0c0.4 0.077 1.054 0.077 1.453 0 0.4-0.077 0.073-0.14-0.726-0.14s-1.126 0.063-0.727 0.14m-104.61 0.328c0.573 0.071 1.59 0.072 2.26 2e-3 0.669-0.07 0.2-0.128-1.042-0.13-1.243-1e-3 -1.791 0.056-1.218 0.128m126.55 0c0.573 0.071 1.59 0.072 2.26 2e-3s0.201-0.128-1.042-0.13c-1.243-1e-3 -1.791 0.056-1.218 0.128m-104.27 4.837c0.399 0.077 1.053 0.077 1.453 0 0.399-0.077 0.072-0.14-0.727-0.14s-1.126 0.063-0.726 0.14m82.974 1e-3c0.401 0.077 0.983 0.074 1.291-7e-3 0.309-0.081-0.02-0.144-0.73-0.14-0.71 3e-3 -0.963 0.069-0.561 0.147m-105.08 0.326c0.49 0.074 1.217 0.072 1.614-5e-3 0.397-0.076-5e-3 -0.137-0.892-0.135-0.888 3e-3 -1.213 0.065-0.722 0.14m127.52 0c0.491 0.074 1.217 0.072 1.614-5e-3 0.397-0.076-4e-3 -0.137-0.892-0.135-0.888 3e-3 -1.213 0.065-0.722 0.14m-163.85 13.232c0.399 0.077 1.053 0.077 1.452 0 0.4-0.077 0.073-0.14-0.726-0.14s-1.126 0.063-0.726 0.14m199.84 1e-3c0.402 0.077 0.983 0.074 1.291-7e-3 0.309-0.08-0.02-0.144-0.73-0.14-0.71 3e-3 -0.963 0.07-0.561 0.147m-92.785 25.276c0 1.687 0.055 2.377 0.121 1.533 0.067-0.843 0.067-2.223 0-3.067-0.066-0.843-0.121-0.153-0.121 1.534m-12.898 11.784c0 3.018 0.048 4.297 0.108 2.84 0.06-1.456 0.06-3.926 1e-3 -5.488-0.06-1.562-0.108-0.371-0.109 2.648" fill="#db83a3"></path>
    <path d="m133.98 220.49c-7.644 0.212-4.759-1.288-20.418 10.616l-6.051 4.601-1.489-0.873c-7.677-4.499-17.166 4.167-14.067 12.848 4.698 13.162 22.229 6.243 18.966-7.485-0.177-0.745 0.517-1.338 8.932-7.632l9.123-6.824 6.053-0.216c3.33-0.118 6.054-0.143 6.054-0.055s-0.806 2.239-1.79 4.78c-0.985 2.541-3.37 8.76-5.302 13.821-5.11 13.387-4.528 12.268-6.376 12.266-8.804-9e-3 -13.008 11.944-6.356 18.075 9.736 8.975 22.728-5.299 13.809-15.171l-1.143-1.266 0.631-1.706c1.276-3.447 2.959-7.903 3.874-10.261 0.517-1.332 2.508-6.526 4.424-11.542l3.484-9.12h5.396c2.968 0 6.253-0.086 7.3-0.19 1.729-0.173 2.036-0.104 3.356 0.76 0.799 0.523 6.174 3.821 11.945 7.33s11.582 7.062 12.914 7.897l2.421 1.518 0.162 20.317c0.182 23.014 0.112 22.406 2.906 25.284 4.409 4.544 13.972 4.232 17.643-0.576 2.264-2.965 2.316-3.566 2.358-27.15l0.032-17.918 7.658-4.645c4.213-2.554 8.095-4.92 8.628-5.258 10.491-6.644 12.556-7.742 14.205-7.556 0.888 0.1 4.156 0.183 7.264 0.186l5.649 4e-3 2.548 6.697c1.402 3.684 3.167 8.296 3.923 10.249s1.902 4.932 2.546 6.618c0.644 1.687 1.692 4.409 2.327 6.048l1.156 2.98-1.484 1.651c-7.402 8.233 1.828 21.523 11.536 16.611 9.396-4.754 6.597-19.864-3.679-19.864-1.48 0-1.882-0.113-2.019-0.565-0.094-0.311-1.939-5.141-4.1-10.735-6.408-16.585-7.427-19.262-7.427-19.508 0-0.129 2.724-0.128 6.053 1e-3l6.054 0.234 2.421 1.822c17.402 13.092 16.158 12.021 15.464 13.31-0.741 1.375-0.515 5.369 0.42 7.411 4.526 9.885 18.356 7.404 19.227-3.449 0.629-7.833-7.49-13.607-14.302-10.171l-1.88 0.948-3.089-2.341c-1.698-1.287-5.819-4.41-9.156-6.941-3.338-2.53-6.543-4.88-7.123-5.222-0.992-0.585-2.057-0.633-18.306-0.822l-17.252-0.201-8.555 5.241c-4.705 2.883-11.897 7.295-15.981 9.804l-7.425 4.563-0.196 15.332c-0.108 8.433-0.217 18.107-0.242 21.499-0.044 5.823-0.087 6.227-0.774 7.247-2.45 3.636-9.379 3.365-11.466-0.448-0.509-0.929-0.573-2.924-0.72-22.318l-0.161-21.297-12.268-7.513c-6.748-4.131-13.956-8.53-16.019-9.776l-3.75-2.263-11.1 0.067c-6.106 0.037-13.934 0.146-17.396 0.242m-30.361 18.731c4.659 2.377 3.445 9.671-1.707 10.252-4.115 0.464-7.101-4.282-5.022-7.981 1.455-2.588 4.254-3.533 6.729-2.271m199.3-0.194c4.24 1.814 4.577 7.834 0.553 9.887-6.12 3.122-10.659-6.203-4.67-9.595 1.479-0.837 2.648-0.92 4.117-0.292m-173.03 22.595c2.312 0.966 3.773 3.922 3.126 6.324-1.193 4.432-6.701 5.642-9.139 2.009-3.015-4.493 1.206-10.342 6.013-8.333m147.65 0.707c1.452 1.108 2.046 2.368 2.046 4.341 0 4.86-5.313 7.228-8.674 3.866-4.537-4.536 1.553-12.077 6.628-8.207" fill="#82ba51"></path>
  </g>
</svg>